<svg width="296" height="36" viewBox="0 0 296 36" fill="none" xmlns="http://www.w3.org/2000/svg">
<path d="M1 33.5494C19.4567 39.6022 39.9346 25.7572 68.4963 9.73334C87.338 -0.671674 109.615 -2.83724 128.323 9.06246C132.102 11.1284 136.459 16.3669 137.441 20.7189C138.969 27.483 133.014 29.8102 128.323 30.195C123.631 30.5798 111.147 26.3085 119.971 17.6161C135.394 2.43989 166.645 4.24071 185.081 11.6621C208.963 21.2759 236.327 32.0399 262.463 32.0399C272.584 32.0399 286.06 29.6187 292.5 21C293.043 20.4391 297.478 11.4351 293.229 7C287 0.5 280.682 5 280.682 8.88943C280.682 12.5639 284.5 13 286 11.5" stroke="black" stroke-linecap="round" stroke-linejoin="round"/>
</svg>
