<svg id="icons" enable-background="new 0 0 64 64" height="512" viewBox="0 0 64 64" width="512" xmlns="http://www.w3.org/2000/svg"><g><path d="m32 64c17.645 0 32-14.355 32-32s-14.355-32-32-32-32 14.355-32 32 14.355 32 32 32zm0-62c16.542 0 30 13.458 30 30s-13.458 30-30 30-30-13.458-30-30 13.458-30 30-30z"/><path d="m11.494 52.506c.02.019.044.025.064.043 5.248 5.22 12.474 8.451 20.442 8.451h.003.001c15.988-.002 28.996-13.011 28.996-29 0-7.968-3.231-15.195-8.452-20.442-.017-.02-.023-.045-.042-.063s-.044-.025-.063-.042c-5.248-5.221-12.474-8.453-20.443-8.453-15.99 0-29 13.009-29 29 0 7.968 3.231 15.194 8.451 20.441.018.021.024.046.043.065zm16.456-31.506c.017 0 .03.009.047.009 1.654 0 3 1.346 3 3 0 .01.006.019.006.029v2.003c-.825-.627-1.841-1.013-2.951-1.025-.017 0-.03-.009-.047-.009-1.654 0-3-1.346-3-3 0 0 0 0 0-.001s0 0 0-.001v-2.025c.824.624 1.837 1.008 2.945 1.02zm8.053.01c.017 0 .03-.009.047-.009 1.108-.012 2.121-.396 2.945-1.02v2.025.001s0 0 0 .001c0 1.654-1.346 3-3 3-.017 0-.03.009-.047.009-1.108.012-2.121.396-2.945 1.02v-2.027c0-1.655 1.346-3 3-3zm-.008 22.006c-.017 0-.03.009-.047.01-1.108.012-2.121.396-2.945 1.02v-2.026c0-1.654 1.346-3.001 3-3.001.017 0 .03-.009.047-.01 1.108-.012 2.121-.396 2.945-1.021v2.012c0 .003.002.005.002.008s-.002.005-.002.008c0 1.654-1.346 3-3 3zm-7.943.009c-.017-.001-.03-.01-.047-.01-1.532 0-2.784-1.158-2.964-2.643l1.578-1.578c.426.124.867.209 1.331.214.017.001.03.01.047.01 1.654 0 3 1.347 3 3.001 0 .011.006.019.006.029v2.001c-.825-.626-1.84-1.012-2.951-1.024zm-.102-16.023c.017 0 .03.009.047.009 1.654 0 3 1.346 3 3 0 .01.006.019.006.029v1.542l-.26.26c-.774-.512-1.698-.813-2.691-.824-.017 0-.03-.009-.047-.009-1.654 0-3-1.346-3-3 0 0 0 0 0-.001s0 0 0-.001v-2.025c.824.624 1.837 1.008 2.945 1.02zm7.576.058-2.476 2.475c.206-1.271 1.206-2.27 2.476-2.475zm.477 5.954c.017 0 .03-.009.047-.01 1.108-.012 2.121-.396 2.945-1.02v2.026.001.001c0 1.655-1.346 3.002-3 3.002-.017 0-.03.009-.047.01-1.108.012-2.121.396-2.945 1.02v-2.028c0-1.656 1.346-3.002 3-3.002zm-7.644 4.041 2.333-2.333c.189.394.305.829.305 1.294 0 .011.006.019.006.029v2.004c-.747-.568-1.653-.921-2.644-.994zm-3.354-3.044v-2.026c.824.624 1.837 1.008 2.945 1.02.017.001.03.01.047.01.459 0 .889.112 1.278.297l-3.08 3.08c-.719-.549-1.19-1.405-1.19-2.378zm13.99-6.002c0 1.655-1.346 3.001-3 3.001-.017 0-.03.009-.047.009-.715.008-1.39.171-2.004.45l5.051-5.05v1.59c0-.001 0-.001 0 0zm-15.577 13.987c.762 1.758 2.503 2.992 4.532 3.014.017.001.03.01.047.01 1.654 0 3 1.346 3 3 0 .011.006.019.006.029v10.926c-6.692-.244-12.768-2.934-17.362-7.201zm9.585 16.979v-10.955c0-1.654 1.346-3 3-3 .017 0 .03-.009.047-.01 2.731-.029 4.945-2.256 4.945-4.994 0-.003-.002-.005-.002-.008s.002-.005.002-.008v-5.987-.001-.001-6.001s0 0 0-.001 0 0 0-.001v-3.589l10.778-10.778c4.48 4.821 7.227 11.274 7.227 18.359 0 14.552-11.573 26.444-25.997 26.975zm-1.003-53.975c7.085 0 13.537 2.747 18.359 7.227l-9.364 9.364v-5.585c0-.552-.447-1-1-1s-1 .448-1 1c0 1.299-.835 2.397-1.992 2.813v-4.815c0-.552-.447-1-1-1s-1 .448-1 1v5.107c-.743.151-1.416.482-2 .924v-9.03c0-.552-.447-1-1-1s-1 .448-1 1v9.035c-.583-.443-1.255-.775-1.998-.928v-5.108c0-.552-.447-1-1-1s-1 .448-1 1v4.817c-1.161-.414-2-1.514-2-2.815 0-.552-.447-1-1-1s-1 .448-1 1v6 .001s0 0 0 .001v6 .001s0 0 0 .001v6.001.001.001 5.568l-10.778 10.778c-4.48-4.822-7.227-11.274-7.227-18.359 0-14.888 12.112-27 27-27z"/></g></svg>