<svg id="icons" enable-background="new 0 0 64 64" height="64" viewBox="0 0 64 64" width="64" xmlns="http://www.w3.org/2000/svg"><g><g><path d="m32 64c-17.645 0-32-14.355-32-32s14.355-32 32-32 32 14.355 32 32-14.355 32-32 32zm0-62c-16.542 0-30 13.458-30 30s13.458 30 30 30 30-13.458 30-30-13.458-30-30-30z"/></g><g><path d="m32 61c-15.99 0-29-13.01-29-29 0-15.991 13.01-29 29-29s29 13.009 29 29c0 15.99-13.01 29-29 29zm0-56c-14.888 0-27 12.112-27 27 0 14.889 12.112 27 27 27 14.889 0 27-12.111 27-27 0-14.888-12.111-27-27-27z"/></g><g><path d="m12.201 52.799c-.256 0-.512-.098-.707-.293-.391-.391-.391-1.023 0-1.414l39.598-39.598c.391-.391 1.023-.391 1.414 0s.391 1.023 0 1.414l-39.598 39.598c-.195.195-.451.293-.707.293z"/></g><g><g><path d="m30 47.003h-12.004c-.553 0-1-.446-1-1v-12.002c0-.554.447-1 1-1h12.004c.553 0 1 .446 1 1v12.002c0 .554-.447 1-1 1zm-11.004-2h10.004v-10.002h-10.004z"/></g><g><path d="m42.004 47.003h-12.004c-.553 0-1-.446-1-1v-12.002c0-.554.447-1 1-1h12.004c.553 0 1 .446 1 1v12.002c0 .554-.447 1-1 1zm-11.004-2h10.004v-10.002h-10.004z"/></g><g><path d="m42.004 47.003c-.256 0-.512-.099-.707-.293-.391-.392-.391-1.022 0-1.414l4-4c.391-.392 1.023-.392 1.414 0s.391 1.022 0 1.414l-4 4c-.195.194-.451.293-.707.293z"/></g><g><path d="m42.004 35.001c-.256 0-.512-.099-.707-.293-.391-.392-.391-1.022 0-1.414l4-4c.391-.391 1.023-.391 1.414 0s.391 1.023 0 1.414l-4 4c-.195.194-.451.293-.707.293z"/></g><g><path d="m36.002 34.999c-.256 0-.512-.099-.707-.293-.391-.392-.391-1.022 0-1.414l4-4c.391-.391 1.023-.391 1.414 0s.391 1.023 0 1.414l-4 4c-.195.194-.451.293-.707.293z"/></g><g><path d="m46.004 43.003c-.553 0-1-.446-1-1v-12.002c0-.552.447-1 1-1s1 .448 1 1v12.002c0 .554-.447 1-1 1z"/></g><g><path d="m46.004 31.001h-6.002c-.553 0-1-.448-1-1s.447-1 1-1h6.002c.553 0 1 .448 1 1s-.447 1-1 1z"/></g><g><g><path d="m36.002 35.001h-12.004c-.553 0-1-.446-1-1v-12.001c0-.552.447-1 1-1h12.004c.553 0 1 .448 1 1v12.001c0 .554-.447 1-1 1zm-11.004-2h10.004v-10.001h-10.004z"/></g><g><path d="m36.002 22.998c-.256 0-.512-.098-.707-.293-.391-.39-.391-1.023 0-1.414l4-4.001c.391-.391 1.023-.391 1.414 0 .391.39.391 1.023 0 1.414l-4 4.001c-.195.195-.451.293-.707.293z"/></g><g><path d="m40.002 31.001c-.553 0-1-.448-1-1v-12.004c0-.552.447-1 1-1s1 .448 1 1v12.004c0 .552-.447 1-1 1z"/></g><g><path d="m23.998 23c-.256 0-.512-.098-.707-.293-.391-.391-.391-1.023 0-1.414l4.002-4.002c.391-.391 1.023-.391 1.414 0s.391 1.023 0 1.414l-4.002 4.002c-.195.195-.451.293-.707.293z"/></g><g><path d="m40.002 18.997h-12.002c-.553 0-1-.448-1-1s.447-1 1-1h12.002c.553 0 1 .448 1 1s-.447 1-1 1z"/></g></g><g><path d="m17.996 35.001c-.256 0-.512-.099-.707-.293-.391-.392-.391-1.022 0-1.414l4-4c.391-.391 1.023-.391 1.414 0s.391 1.023 0 1.414l-4 4c-.195.194-.451.293-.707.293z"/></g><g><path d="m23.998 31.001h-2.002c-.553 0-1-.448-1-1s.447-1 1-1h2.002c.553 0 1 .448 1 1s-.447 1-1 1z"/></g></g></g></svg>