<svg width="61" height="61" viewBox="0 0 61 61" fill="none" xmlns="http://www.w3.org/2000/svg">
<path d="M30.5 58.1406C15.2595 58.1406 2.85938 45.7405 2.85938 30.5C2.85938 15.2586 15.2595 2.85938 30.5 2.85938C45.7405 2.85938 58.1406 15.2586 58.1406 30.5C58.1406 45.7405 45.7405 58.1406 30.5 58.1406ZM30.5 4.76562C16.3099 4.76562 4.76562 16.3099 4.76562 30.5C4.76562 44.6911 16.3099 56.2344 30.5 56.2344C44.6911 56.2344 56.2344 44.6911 56.2344 30.5C56.2344 16.3099 44.6911 4.76562 30.5 4.76562Z" fill="black"/>
<path d="M11.6291 50.3241C11.3851 50.3241 11.1411 50.2307 10.9553 50.0448C10.5826 49.6722 10.5826 49.0698 10.9553 48.6971L48.6971 10.9553C49.0698 10.5826 49.6722 10.5826 50.0449 10.9553C50.4175 11.328 50.4175 11.9303 50.0449 12.303L12.303 50.0448C12.1171 50.2307 11.8731 50.3241 11.6291 50.3241Z" fill="black"/>
<path d="M28.5976 44.8H17.1563C16.6292 44.8 16.2031 44.3749 16.2031 43.8469V32.4075C16.2031 31.8794 16.6292 31.4543 17.1563 31.4543H28.5976C29.1246 31.4543 29.5507 31.8794 29.5507 32.4075V43.8469C29.5507 44.3749 29.1246 44.8 28.5976 44.8ZM18.1094 42.8938H27.6444V33.3606H18.1094V42.8938Z" fill="black"/>
<path d="M40.0351 44.8H28.5938C28.0667 44.8 27.6406 44.3749 27.6406 43.8469V32.4075C27.6406 31.8794 28.0667 31.4543 28.5938 31.4543H40.0351C40.5621 31.4543 40.9882 31.8794 40.9882 32.4075V43.8469C40.9882 44.3749 40.5621 44.8 40.0351 44.8ZM29.5469 42.8938H39.0819V33.3606H29.5469V42.8938Z" fill="black"/>
<path d="M40.0393 44.8C39.7953 44.8 39.5513 44.7057 39.3654 44.5208C38.9928 44.1471 38.9928 43.5467 39.3654 43.173L43.1779 39.3605C43.5506 38.9869 44.153 38.9869 44.5256 39.3605C44.8983 39.7342 44.8983 40.3346 44.5256 40.7083L40.7132 44.5208C40.5273 44.7057 40.2833 44.8 40.0393 44.8Z" fill="black"/>
<path d="M40.0393 33.3606C39.7953 33.3606 39.5513 33.2662 39.3654 33.0813C38.9928 32.7077 38.9928 32.1072 39.3654 31.7336L43.1779 27.9211C43.5506 27.5484 44.153 27.5484 44.5256 27.9211C44.8983 28.2938 44.8983 28.8962 44.5256 29.2688L40.7132 33.0813C40.5273 33.2662 40.2833 33.3606 40.0393 33.3606Z" fill="black"/>
<path d="M34.3206 33.3586C34.0766 33.3586 33.8326 33.2643 33.6467 33.0794C33.274 32.7057 33.274 32.1053 33.6467 31.7316L37.4592 27.9192C37.8319 27.5465 38.4342 27.5465 38.8069 27.9192C39.1796 28.2918 39.1796 28.8942 38.8069 29.2669L34.9944 33.0794C34.8086 33.2643 34.5646 33.3586 34.3206 33.3586Z" fill="black"/>
<path d="M43.8516 40.9875C43.3245 40.9875 42.8984 40.5624 42.8984 40.0344V28.595C42.8984 28.0688 43.3245 27.6418 43.8516 27.6418C44.3786 27.6418 44.8047 28.0688 44.8047 28.595V40.0344C44.8047 40.5624 44.3786 40.9875 43.8516 40.9875Z" fill="black"/>
<path d="M43.8535 29.5481H38.1328C37.6057 29.5481 37.1797 29.1211 37.1797 28.595C37.1797 28.0688 37.6057 27.6418 38.1328 27.6418H43.8535C44.3805 27.6418 44.8066 28.0688 44.8066 28.595C44.8066 29.1211 44.3805 29.5481 43.8535 29.5481Z" fill="black"/>
<path d="M34.3163 33.3603H22.875C22.3479 33.3603 21.9219 32.9352 21.9219 32.4072V20.9688C21.9219 20.4426 22.3479 20.0156 22.875 20.0156H34.3163C34.8434 20.0156 35.2694 20.4426 35.2694 20.9688V32.4072C35.2694 32.9352 34.8434 33.3603 34.3163 33.3603ZM23.8281 31.4541H33.3632V21.9219H23.8281V31.4541Z" fill="black"/>
<path d="M34.3127 21.9201C34.0687 21.9201 33.8247 21.8267 33.6389 21.6409C33.2662 21.2692 33.2662 20.6658 33.6389 20.2932L37.4514 16.4797C37.8241 16.107 38.4264 16.107 38.7991 16.4797C39.1718 16.8514 39.1718 17.4547 38.7991 17.8274L34.9866 21.6409C34.8007 21.8267 34.5567 21.9201 34.3127 21.9201Z" fill="black"/>
<path d="M38.125 29.5478C37.5979 29.5478 37.1719 29.1208 37.1719 28.5946V17.1533C37.1719 16.6272 37.5979 16.2002 38.125 16.2002C38.6521 16.2002 39.0781 16.6272 39.0781 17.1533V28.5946C39.0781 29.1208 38.6521 29.5478 38.125 29.5478V29.5478Z" fill="black"/>
<path d="M22.8752 21.9221C22.6312 21.9221 22.3872 21.8287 22.2014 21.6428C21.8287 21.2701 21.8287 20.6677 22.2014 20.2951L26.0158 16.4807C26.3885 16.108 26.9908 16.108 27.3635 16.4807C27.7362 16.8533 27.7362 17.4557 27.3635 17.8284L23.5491 21.6428C23.3632 21.8287 23.1192 21.9221 22.8752 21.9221Z" fill="black"/>
<path d="M38.1269 18.1064H26.6875C26.1604 18.1064 25.7344 17.6794 25.7344 17.1533C25.7344 16.6272 26.1604 16.2002 26.6875 16.2002H38.1269C38.654 16.2002 39.08 16.6272 39.08 17.1533C39.08 17.6794 38.654 18.1064 38.1269 18.1064Z" fill="black"/>
<path d="M17.1565 33.3606C16.9125 33.3606 16.6685 33.2662 16.4826 33.0813C16.11 32.7077 16.11 32.1072 16.4826 31.7336L20.2951 27.9211C20.6678 27.5484 21.2702 27.5484 21.6429 27.9211C22.0155 28.2938 22.0155 28.8962 21.6429 29.2688L17.8303 33.0813C17.6445 33.2662 17.4005 33.3606 17.1565 33.3606Z" fill="black"/>
<path d="M22.8769 29.5481H20.9688C20.4417 29.5481 20.0156 29.1211 20.0156 28.595C20.0156 28.0688 20.4417 27.6418 20.9688 27.6418H22.8769C23.404 27.6418 23.83 28.0688 23.83 28.595C23.83 29.1211 23.404 29.5481 22.8769 29.5481Z" fill="black"/>
</svg>
