<svg id="icons" enable-background="new 0 0 64 64" height="512" viewBox="0 0 64 64" width="512" xmlns="http://www.w3.org/2000/svg"><g><path d="m32 0c-17.645 0-32 14.355-32 32s14.355 32 32 32 32-14.355 32-32-14.355-32-32-32zm0 62c-16.542 0-30-13.458-30-30s13.458-30 30-30 30 13.458 30 30-13.458 30-30 30z"/><path d="m52.506 11.494c-.02-.019-.044-.025-.064-.043-5.248-5.22-12.474-8.451-20.442-8.451-15.99 0-29 13.01-29 29 0 7.968 3.231 15.194 8.451 20.441.018.021.023.046.043.064s.044.025.064.043c5.248 5.221 12.474 8.452 20.442 8.452 15.99 0 29-13.01 29-29 0-7.968-3.231-15.194-8.451-20.441-.018-.021-.024-.046-.043-.065zm-20.506-6.494c7.085 0 13.537 2.747 18.359 7.227l-8.029 8.029c-1.154-3.172-3.718-5.668-6.938-6.715-.002-.001-.004-.002-.006-.002-1.068-.347-2.204-.539-3.386-.539-6.064 0-10.999 4.935-10.999 11 0 2.639 1.028 4.466 1.854 5.934.615 1.091 1.145 2.034 1.145 3.066 0 1.119-.607 1.952-1.311 2.917-.792 1.088-1.689 2.32-1.689 4.083 0 .501.045.991.111 1.476l-8.885 8.884c-4.479-4.823-7.226-11.275-7.226-18.36 0-14.888 12.112-27 27-27zm0 44c-.688 0-1.355-.085-2-.231v-7.769h4v7.769c-.645.146-1.312.231-2 .231zm-8.73-6.855 1.144-1.145h3.586v7.051c-2.337-1.166-4.094-3.316-4.73-5.906zm10.73-13.559-3.414 3.414h-.586v-7h4zm2-3.586h1.586l-1.586 1.586zm-6 10.414 1.414-1.414h2.586v5h-4zm-2 3.586h-1.586l1.586-1.586zm5.414-7 .586-.586v.586zm-3.414-9v-7.769c.645-.146 1.312-.231 2-.231s1.355.085 2 .231v7.769zm-2 0h-4.94c.345-3.096 2.267-5.716 4.94-7.05zm0 2v7h-2.103c-.219-1.118-.764-2.096-1.299-3.047-.654-1.162-1.32-2.364-1.526-3.953zm-3.693 12.095c.635-.871 1.328-1.839 1.585-3.095h2.108v.586l-4.414 4.414h-.396c.229-.658.642-1.254 1.117-1.905zm11.693 3.905h4.941c-.345 3.097-2.267 5.716-4.941 7.051zm0-2v-5h2.108c.257 1.256.95 2.224 1.585 3.095.474.651.887 1.247 1.116 1.905zm3.401-10.047c-.535.951-1.08 1.929-1.299 3.047h-2.102v-2.586l4.414-4.414h.514c-.206 1.589-.872 2.791-1.527 3.953zm.185-5.953h-3.586v-7.051c2.337 1.166 4.094 3.315 4.73 5.906zm-7.586 36c-7.085 0-13.537-2.747-18.359-7.227l8.029-8.029c1.154 3.172 3.718 5.668 6.938 6.715.002.001.004.002.006.002 1.068.347 2.204.539 3.386.539s2.318-.192 3.386-.539c.002 0 .004-.001.006-.002 4.409-1.434 7.608-5.577 7.608-10.459 0-.003-.002-.005-.002-.007-.002-1.759-.897-2.99-1.688-4.075-.703-.966-1.31-1.799-1.31-2.918 0-1.032.53-1.975 1.145-3.066.825-1.467 1.853-3.292 1.854-5.928 0-.002.001-.004.001-.006 0-.501-.045-.991-.111-1.476l8.885-8.884c4.479 4.823 7.226 11.275 7.226 18.36 0 14.888-12.112 27-27 27z"/></g></svg>