<svg width="61" height="61" viewBox="0 0 61 61" fill="none" xmlns="http://www.w3.org/2000/svg">
<path d="M50.0448 10.9552C50.0267 10.9371 50.0028 10.9314 49.9838 10.9142C44.9818 5.93892 38.0945 2.85938 30.5 2.85938C15.2595 2.85938 2.85938 15.2595 2.85938 30.5C2.85938 38.0945 5.93892 44.9818 10.9142 49.9828C10.9314 50.0028 10.9371 50.0267 10.9552 50.0438C10.9733 50.061 10.9972 50.0677 11.0162 50.0848C16.0182 55.0611 22.9055 58.1406 30.5 58.1406C45.7405 58.1406 58.1406 45.7405 58.1406 30.5C58.1406 22.9055 55.0611 16.0182 50.0858 11.0172C50.0686 10.9972 50.0619 10.9733 50.0448 10.9552V10.9552ZM30.5 4.76562C37.2529 4.76562 43.4025 7.38386 47.9984 11.6539L41.9394 17.7129L40.0332 15.8076V12.3878C40.0332 11.8607 39.6071 11.4346 39.08 11.4346H21.9257C21.3986 11.4346 20.9726 11.8607 20.9726 12.3878V15.8038L17.4384 19.338C17.4374 19.338 17.4374 19.3399 17.4365 19.3399L17.4355 19.3408C17.4288 19.3475 17.4269 19.357 17.4203 19.3627C17.3421 19.4457 17.2763 19.541 17.2315 19.6468C17.181 19.7678 17.1572 19.8955 17.1582 20.0242V42.4941L11.6539 47.9984C7.38386 43.4025 4.76562 37.2529 4.76562 30.5C4.76562 16.3099 16.3099 4.76562 30.5 4.76562ZM19.0644 43.2833L34.3087 28.039V47.6591H19.0644V43.2833ZM36.2149 20.9659H38.1231V21.5292L36.2149 23.4373V20.9659ZM37.5636 19.0596L39.0762 17.5461L40.5898 19.0596H37.5636ZM38.1269 15.2452H22.8788V13.3409H38.1269V15.2452ZM22.3203 17.1515H36.7763L34.8691 19.0596H20.4121L22.3203 17.1515ZM19.0644 20.9659H34.3087V25.3436L19.0644 40.5879V20.9659ZM36.2149 26.1328L38.1231 24.2246V44.4032L36.2149 46.3114V26.1328ZM39.0762 46.1455L40.5907 47.6591H37.5627L39.0762 46.1455ZM40.0293 44.4032V22.3184L41.3818 20.9659H41.9356V46.3085L40.0293 44.4032ZM30.5 56.2344C23.7471 56.2344 17.5975 53.6161 13.0016 49.3461L17.1582 45.1896V48.6122C17.1582 49.1393 17.5842 49.5654 18.1113 49.5654H35.2618H42.8887C42.965 49.5654 43.0317 49.5396 43.1032 49.5225C43.1527 49.5101 43.2033 49.511 43.2519 49.492C43.3691 49.4434 43.4749 49.3738 43.5645 49.2842C43.5712 49.2775 43.5731 49.268 43.5797 49.2623C43.6579 49.1793 43.7237 49.084 43.7685 48.9773C43.819 48.8572 43.8428 48.7295 43.8418 48.6008V20.0223C43.8428 19.8936 43.819 19.765 43.7675 19.6449C43.7437 19.5848 43.6989 19.54 43.6636 19.4876C43.6303 19.438 43.6083 19.3828 43.5645 19.3389L43.2871 19.0606L49.3461 13.0016C53.6161 17.5975 56.2344 23.7471 56.2344 30.5C56.2344 44.6901 44.6901 56.2344 30.5 56.2344V56.2344Z" fill="black"/>
</svg>
