<svg width="61" height="61" viewBox="0 0 61 61" fill="none" xmlns="http://www.w3.org/2000/svg">
<path d="M50.0448 10.9552C50.0257 10.9371 50.0028 10.9314 49.9838 10.9142C44.9818 5.93892 38.0945 2.85938 30.5 2.85938C15.2595 2.85938 2.85938 15.2595 2.85938 30.5C2.85938 38.0945 5.93892 44.9818 10.9142 49.9828C10.9314 50.0028 10.9362 50.0267 10.9552 50.0438C10.9743 50.061 10.9972 50.0677 11.0162 50.0848C16.0182 55.0611 22.9055 58.1406 30.5 58.1406C45.7405 58.1406 58.1406 45.7405 58.1406 30.5C58.1406 22.9055 55.0611 16.0182 50.0858 11.0172C50.0686 10.9972 50.0629 10.9733 50.0448 10.9552V10.9552ZM30.5 4.76562C37.2529 4.76562 43.4025 7.38386 47.9984 11.6539L40.3458 19.3065C39.2459 16.2832 36.8021 13.9042 33.733 12.9063C33.7311 12.9053 33.7292 12.9044 33.7273 12.9044C32.7093 12.5736 31.6266 12.3906 30.5 12.3906C24.7202 12.3906 20.0166 17.0943 20.0166 22.875C20.0166 25.3903 20.9964 27.1317 21.7837 28.5308C22.3698 29.5707 22.875 30.4695 22.875 31.4531C22.875 32.5197 22.2965 33.3136 21.6255 34.2334C20.8706 35.2704 20.0156 36.4446 20.0156 38.125C20.0156 38.6025 20.0585 39.0695 20.1214 39.5318L11.6529 47.9994C7.38386 43.4025 4.76562 37.2529 4.76562 30.5C4.76562 16.3099 16.3099 4.76562 30.5 4.76562V4.76562ZM30.5 46.7031C29.8442 46.7031 29.2085 46.6221 28.5938 46.483V39.0781H32.4062V46.483C31.7915 46.6221 31.1558 46.7031 30.5 46.7031ZM22.1792 40.1695L23.2696 39.0781H26.6875V45.7986C24.46 44.6873 22.7854 42.638 22.1792 40.1695V40.1695ZM32.4062 27.246L29.1523 30.5H28.5938V23.8281H32.4062V27.246ZM34.3125 23.8281H35.8242L34.3125 25.3398V23.8281ZM28.5938 33.754L29.9415 32.4062H32.4062V37.1719H28.5938V33.754ZM26.6875 37.1719H25.1758L26.6875 35.6602V37.1719ZM31.8477 30.5L32.4062 29.9415V30.5H31.8477ZM28.5938 21.9219V14.517C29.2085 14.3779 29.8442 14.2969 30.5 14.2969C31.1558 14.2969 31.7915 14.3779 32.4062 14.517V21.9219H28.5938ZM26.6875 21.9219H21.9791C22.3079 18.971 24.1398 16.4738 26.6875 15.2023V21.9219ZM26.6875 23.8281V30.5H24.6831C24.4743 29.4344 23.9549 28.5022 23.445 27.5958C22.8216 26.4883 22.1868 25.3426 21.9905 23.8281H26.6875ZM23.1676 35.3562C23.7728 34.526 24.4334 33.6034 24.6783 32.4062H26.6875V32.9648L22.4804 37.1719H22.103C22.3212 36.5447 22.7149 35.9767 23.1676 35.3562ZM34.3125 39.0781H39.0219C38.6931 42.03 36.8612 44.5262 34.3125 45.7986V39.0781ZM34.3125 37.1719V32.4062H36.3217C36.5666 33.6034 37.2272 34.526 37.8324 35.3562C38.2842 35.9767 38.6778 36.5447 38.8961 37.1719H34.3125ZM37.5541 27.5958C37.0442 28.5022 36.5247 29.4344 36.316 30.5H34.3125V28.0352L38.5196 23.8281H39.0095C38.8132 25.3426 38.1784 26.4883 37.5541 27.5958V27.5958ZM37.7304 21.9219H34.3125V15.2014C36.54 16.3127 38.2146 18.361 38.8208 20.8305L37.7304 21.9219ZM30.5 56.2344C23.7471 56.2344 17.5975 53.6161 13.0016 49.3461L20.6542 41.6935C21.7541 44.7168 24.1979 47.0958 27.267 48.0937C27.2689 48.0947 27.2708 48.0956 27.2727 48.0956C28.2907 48.4264 29.3734 48.6094 30.5 48.6094C31.6266 48.6094 32.7093 48.4264 33.7273 48.0956C33.7292 48.0956 33.7311 48.0947 33.733 48.0937C37.9353 46.727 40.9844 42.7782 40.9844 38.125C40.9844 38.1221 40.9825 38.1202 40.9825 38.1183C40.9806 36.4418 40.1275 35.2685 39.3736 34.2343C38.7035 33.3136 38.125 32.5197 38.125 31.4531C38.125 30.4695 38.6302 29.5707 39.2163 28.5308C40.0027 27.1326 40.9825 25.3932 40.9834 22.8807C40.9834 22.8788 40.9844 22.8769 40.9844 22.875C40.9844 22.3975 40.9415 21.9305 40.8786 21.4682L49.3471 13.0006C53.6161 17.5975 56.2344 23.7471 56.2344 30.5C56.2344 44.6901 44.6901 56.2344 30.5 56.2344V56.2344Z" fill="black"/>
</svg>
