<svg width="61" height="61" viewBox="0 0 61 61" fill="none" xmlns="http://www.w3.org/2000/svg">
<path d="M10.9552 50.0448C10.9743 50.0629 10.9972 50.0686 11.0162 50.0858C16.0182 55.0611 22.9055 58.1406 30.5 58.1406H30.5029H30.5038C45.7424 58.1387 58.1406 45.7395 58.1406 30.5C58.1406 22.9055 55.0611 16.0173 50.0848 11.0162C50.0686 10.9972 50.0629 10.9733 50.0448 10.9562C50.0267 10.939 50.0028 10.9323 49.9847 10.9161C44.9827 5.93987 38.0955 2.85938 30.5 2.85938C15.2595 2.85938 2.85938 15.2586 2.85938 30.5C2.85938 38.0945 5.93892 44.9818 10.9142 49.9828C10.9314 50.0028 10.9371 50.0267 10.9552 50.0448V50.0448ZM26.6398 20.0156C26.656 20.0156 26.6684 20.0242 26.6846 20.0242C28.2611 20.0242 29.544 21.3071 29.544 22.8836C29.544 22.8931 29.5497 22.9017 29.5497 22.9112V24.8203C28.7634 24.2227 27.795 23.8548 26.7371 23.8434C26.7209 23.8434 26.7085 23.8348 26.6923 23.8348C25.1158 23.8348 23.8329 22.5519 23.8329 20.9754C23.8329 20.9754 23.8329 20.9754 23.8329 20.9745C23.8329 20.9735 23.8329 20.9745 23.8329 20.9735V19.0434C24.6183 19.6382 25.5838 20.0042 26.6398 20.0156ZM34.3154 20.0252C34.3316 20.0252 34.344 20.0166 34.3602 20.0166C35.4162 20.0051 36.3817 19.6391 37.1671 19.0444V20.9745V20.9754C37.1671 20.9754 37.1671 20.9754 37.1671 20.9764C37.1671 22.5528 35.8842 23.8357 34.3077 23.8357C34.2915 23.8357 34.2791 23.8443 34.2629 23.8443C33.2069 23.8558 32.2414 24.2218 31.456 24.8165V22.8845C31.456 21.3071 32.7389 20.0252 34.3154 20.0252ZM34.3077 40.9996C34.2915 40.9996 34.2791 41.0082 34.2629 41.0092C33.2069 41.0206 32.2414 41.3866 31.456 41.9813V40.0503C31.456 38.4738 32.7389 37.19 34.3154 37.19C34.3316 37.19 34.344 37.1814 34.3602 37.1805C35.4162 37.169 36.3817 36.803 37.1671 36.2073V38.125C37.1671 38.1279 37.169 38.1298 37.169 38.1326C37.169 38.1355 37.1671 38.1374 37.1671 38.1402C37.1671 39.7167 35.8842 40.9996 34.3077 40.9996V40.9996ZM26.7371 41.0082C26.7209 41.0073 26.7085 40.9987 26.6923 40.9987C25.2321 40.9987 24.0388 39.895 23.8672 38.4796L25.3712 36.9755C25.7773 37.0937 26.1976 37.1747 26.6398 37.1795C26.656 37.1805 26.6684 37.189 26.6846 37.189C28.2611 37.189 29.544 38.4729 29.544 40.0494C29.544 40.0598 29.5497 40.0675 29.5497 40.077V41.9842C28.7634 41.3875 27.796 41.0196 26.7371 41.0082V41.0082ZM26.6398 25.7363C26.656 25.7363 26.6684 25.7449 26.6846 25.7449C28.2611 25.7449 29.544 27.0278 29.544 28.6042C29.544 28.6138 29.5497 28.6223 29.5497 28.6319V30.1016L29.3019 30.3494C28.5642 29.8614 27.6835 29.5745 26.7371 29.564C26.7209 29.564 26.7085 29.5555 26.6923 29.5555C25.1158 29.5555 23.8329 28.2725 23.8329 26.6961C23.8329 26.6961 23.8329 26.6961 23.8329 26.6951C23.8329 26.6942 23.8329 26.6951 23.8329 26.6942V24.7641C24.6183 25.3588 25.5838 25.7248 26.6398 25.7363ZM33.8607 25.7916L31.5008 28.1505C31.6971 26.9391 32.6503 25.987 33.8607 25.7916ZM34.3154 31.4665C34.3316 31.4665 34.344 31.4579 34.3602 31.4569C35.4162 31.4455 36.3817 31.0795 37.1671 30.4847V32.4158V32.4167V32.4177C37.1671 33.9951 35.8842 35.279 34.3077 35.279C34.2915 35.279 34.2791 35.2875 34.2629 35.2885C33.2069 35.2999 32.2414 35.6659 31.456 36.2607V34.3277C31.456 32.7494 32.7389 31.4665 34.3154 31.4665ZM27.0297 35.318L29.2533 33.0944C29.4335 33.4699 29.544 33.8845 29.544 34.3277C29.544 34.3382 29.5497 34.3459 29.5497 34.3554V36.2655C28.8378 35.7241 27.9742 35.3876 27.0297 35.318ZM23.8329 32.4167V30.4857C24.6183 31.0805 25.5838 31.4465 26.6398 31.4579C26.656 31.4588 26.6684 31.4674 26.6846 31.4674C27.1221 31.4674 27.532 31.5742 27.9027 31.7505L24.9671 34.6861C24.2818 34.1629 23.8329 33.347 23.8329 32.4196V32.4167ZM37.1671 26.6961C37.1671 28.2735 35.8842 29.5564 34.3077 29.5564C34.2915 29.5564 34.2791 29.565 34.2629 29.565C33.5815 29.5726 32.9381 29.728 32.3529 29.9939L37.1671 25.1806V26.6961C37.1671 26.6951 37.1671 26.6951 37.1671 26.6961V26.6961ZM22.3203 40.0274C23.0466 41.703 24.706 42.8792 26.6398 42.9002C26.656 42.9011 26.6684 42.9097 26.6846 42.9097C28.2611 42.9097 29.544 44.1926 29.544 45.7691C29.544 45.7795 29.5497 45.7872 29.5497 45.7967V56.2105C23.1714 55.978 17.3802 53.4141 13.0016 49.3471L22.3203 40.0274ZM31.456 56.2105V45.7691C31.456 44.1926 32.7389 42.9097 34.3154 42.9097C34.3316 42.9097 34.344 42.9011 34.3602 42.9002C36.9631 42.8725 39.0734 40.7499 39.0734 38.1402C39.0734 38.1374 39.0715 38.1355 39.0715 38.1326C39.0715 38.1298 39.0734 38.1279 39.0734 38.125V32.4186V32.4177V32.4167V26.697C39.0734 26.697 39.0734 26.697 39.0734 26.6961C39.0734 26.6951 39.0734 26.6961 39.0734 26.6951V23.2744L49.3461 13.0016C53.6161 17.5966 56.2344 23.7471 56.2344 30.5C56.2344 44.3699 45.2039 55.7044 31.456 56.2105ZM30.5 4.76562C37.2529 4.76562 43.4025 7.38386 47.9984 11.6539L39.0734 20.5789V15.2557C39.0734 14.7296 38.6473 14.3026 38.1202 14.3026C37.5932 14.3026 37.1671 14.7296 37.1671 15.2557C37.1671 16.4938 36.3712 17.5404 35.2685 17.9369V13.3476C35.2685 12.8214 34.8424 12.3944 34.3154 12.3944C33.7883 12.3944 33.3622 12.8214 33.3622 13.3476V18.2152C32.6541 18.3591 32.0126 18.6746 31.456 19.0959V10.4891C31.456 9.96302 31.0299 9.53602 30.5029 9.53602C29.9758 9.53602 29.5497 9.96302 29.5497 10.4891V19.1006C28.9941 18.6784 28.3536 18.362 27.6454 18.2161V13.3476C27.6454 12.8214 27.2193 12.3944 26.6923 12.3944C26.1652 12.3944 25.7391 12.8214 25.7391 13.3476V17.9388C24.6326 17.5442 23.8329 16.4957 23.8329 15.2557C23.8329 14.7296 23.4068 14.3026 22.8798 14.3026C22.3527 14.3026 21.9266 14.7296 21.9266 15.2557V20.9745V20.9754C21.9266 20.9754 21.9266 20.9754 21.9266 20.9764V26.6951V26.6961C21.9266 26.6961 21.9266 26.6961 21.9266 26.697V32.4167V32.4177V32.4186V37.7256L11.6539 47.9984C7.38386 43.4025 4.76562 37.2529 4.76562 30.5C4.76562 16.3099 16.3099 4.76562 30.5 4.76562V4.76562Z" fill="black"/>
</svg>
